<svg width="82" height="42" viewBox="0 0 82 42" fill="none" xmlns="http://www.w3.org/2000/svg">
<path d="M77.9042 0.280029L75.4397 10.4852H75.1982L72.7337 0.280029H69.1729C69.7862 3.03045 73.4914 14.3679 73.5302 14.4845L73.533 14.4956V22.128H77.0994V14.4956L77.1022 14.4845C77.1382 14.3735 80.799 3.34407 81.4595 0.280029H77.9042Z" fill="#001511"/>
<path d="M13.6371 11.2043C13.6371 10.6159 13.626 10.0636 13.6038 9.55292H6.89839V13.111H10.029C9.89028 15.5589 9.45731 17.2408 8.74403 18.1095C8.13345 18.8505 7.45347 18.8505 7.04827 18.8505C6.14071 18.8505 4.01753 18.8505 4.01753 11.2043C4.01753 3.55806 6.14071 3.55806 7.04827 3.55806C7.75322 3.55806 9.21307 3.55806 9.81256 7.21603H13.4067C13.218 5.79781 12.9127 4.62936 12.4686 3.6441C11.1198 0.63279 8.77734 0 7.04827 0C5.31919 0 2.97398 0.63279 1.62792 3.6441C0.831378 5.42313 0.459473 7.82385 0.459473 11.2043C0.459473 14.5847 0.831378 16.9854 1.62792 18.7645C2.97676 21.7758 5.31919 22.4086 7.04827 22.4086C8.77734 22.4086 11.1225 21.7758 12.4686 18.7645C13.2652 16.9882 13.6371 14.5847 13.6371 11.2043Z" fill="#001511"/>
<path d="M59.5419 0.280029H55.9839V22.128H59.5419V13.1107H64.7153V22.128H68.2706V0.280029H64.7153V9.55263H59.5392L59.5419 0.280029Z" fill="#001511"/>
<path d="M53.5858 2.64189C52.5339 1.1182 50.8937 0.280029 48.9731 0.280029H42.6396V22.128H46.1949V15.0396H49.1063C51.0352 15.0396 52.6588 14.1875 53.6746 12.6444C54.5045 11.3816 54.9263 9.70528 54.9263 7.65981C54.9291 5.64765 54.4656 3.91025 53.5858 2.64189ZM50.705 10.6905C50.3386 11.2456 49.8612 11.4843 49.1091 11.4843H46.1977V3.83531H48.9759C49.7474 3.83531 50.2664 4.09065 50.6633 4.66238C51.1213 5.3257 51.3738 6.38868 51.3738 7.65981C51.371 8.96147 51.1351 10.0356 50.705 10.6905Z" fill="#001511"/>
<path d="M26.4341 15.5836C25.8374 13.7574 24.3193 13.6047 24.1639 13.5992V13.4188C24.3831 13.3966 26.1427 12.9858 26.8532 10.2437C27.0309 9.46104 27.1225 8.59512 27.1225 7.65149C27.1225 5.63377 26.659 3.89915 25.7792 2.63079C24.7273 1.1071 23.087 0.280029 21.1637 0.280029H15.0522V22.128H18.6131V15.034H20.2173C20.9833 15.034 21.7743 15.034 22.2461 15.2283C22.4182 15.2977 22.7345 15.4281 22.9427 16.2663C23.2452 17.5652 23.52 20.1574 23.6976 22.128H27.2695C27.078 19.9881 26.6784 16.3246 26.4341 15.5836ZM22.9011 10.6822C22.5347 11.2373 22.0574 11.476 21.3024 11.476H18.6131V3.82699H21.1664C21.9408 3.82699 22.4598 4.08232 22.8567 4.65406C23.3146 5.32015 23.5672 6.3859 23.5672 7.65426C23.5672 8.95037 23.3285 10.0272 22.9011 10.6822Z" fill="#001511"/>
<path d="M37.8466 22.1281H41.4102L37.9743 0.282959H31.8101L28.377 22.1281H31.9406L32.7427 16.7522H37.0445L37.8466 22.1281ZM33.2755 13.1941L34.7742 3.13607H35.0157L36.5144 13.1941H33.2755Z" fill="#001511"/>
<path d="M1.66828 37.4084H2.15425V36.0404H2.21143C2.50954 36.849 3.16295 37.5391 4.23699 37.5391C5.748 37.5391 6.73628 36.1874 6.73628 34.2884C6.73628 32.3976 5.73983 31.0418 4.23291 31.0418C3.15887 31.0418 2.50138 31.7279 2.21143 32.5365H2.16242V29.0448H1.66828V37.4084ZM2.15834 34.2843C2.15834 32.6835 2.92201 31.5073 4.19616 31.5073C5.48664 31.5073 6.24214 32.708 6.24214 34.2843C6.24214 35.8607 5.48664 37.0777 4.19616 37.0777C2.92201 37.0777 2.15834 35.8893 2.15834 34.2843ZM8.74617 39.7607C9.4445 39.7607 9.9754 39.3278 10.2858 38.4743L12.9362 31.1398L12.3971 31.1357L10.4042 36.7673H10.3634L8.37046 31.1357H7.83548L10.1347 37.4942L9.8488 38.2783C9.50576 39.2257 8.96261 39.4708 8.19077 39.1767L8.04376 39.6137C8.23978 39.6995 8.49297 39.7607 8.74617 39.7607ZM23.7932 29.0448V34.5539C23.7932 35.9955 22.7315 37.0532 21.2164 37.0532C19.7013 37.0532 18.6395 35.9955 18.6395 34.5539V29.0448H18.129V34.5825C18.1249 36.2813 19.4195 37.5432 21.2164 37.5432C23.0173 37.5432 24.3037 36.2854 24.3037 34.5825V29.0448H23.7932ZM27.1579 33.341C27.1579 32.2465 27.9175 31.5155 28.963 31.5155C30.0043 31.5155 30.6945 32.222 30.6945 33.292V37.4084H31.1927V33.2716C31.1927 31.8994 30.3188 31.054 29.0569 31.054C28.1625 31.054 27.4887 31.4788 27.1947 32.1281H27.1457V31.1357H26.6597V37.4084H27.1579V33.341ZM35.0403 37.5432C36.0368 37.5432 36.7392 36.9796 37.0659 36.2772H37.1027V37.4084H37.6009V33.0265C37.6009 31.6544 36.5799 31.0418 35.465 31.0418C34.4972 31.0418 33.5906 31.4788 33.2312 32.3813L33.7008 32.5569C33.9459 31.9361 34.5829 31.4992 35.4773 31.4992C36.4901 31.4992 37.1027 32.0832 37.1027 32.9939V33.2552C37.1027 33.7371 36.4002 33.7861 35.4446 33.9005C33.7703 34.1046 33.0515 34.6355 33.0515 35.681C33.0515 36.8735 33.9581 37.5432 35.0403 37.5432ZM35.0893 37.0817C34.2113 37.0817 33.5497 36.5549 33.5497 35.6973C33.5497 34.9214 34.1215 34.5049 35.4936 34.3415C36.1062 34.2721 36.8413 34.1577 37.1027 33.9413V34.8642C37.1027 36.1384 36.2655 37.0817 35.0893 37.0817ZM42.157 37.5391C43.3822 37.5391 44.3051 36.7387 44.4848 35.5789H43.9784C43.815 36.4896 43.0759 37.0777 42.157 37.0777C40.8461 37.0777 39.9518 35.8811 39.9518 34.2843C39.9518 32.6671 40.8829 31.5073 42.157 31.5073C43.1004 31.5073 43.8069 32.1363 43.9661 32.9816H44.4725C44.2888 31.8259 43.3413 31.0418 42.1529 31.0418C40.5643 31.0418 39.4576 32.4303 39.4576 34.2925C39.4576 36.1547 40.5562 37.5391 42.157 37.5391ZM47.9608 37.5432C48.9572 37.5432 49.6596 36.9796 49.9863 36.2772H50.0231V37.4084H50.5213V33.0265C50.5213 31.6544 49.5004 31.0418 48.3855 31.0418C47.4176 31.0418 46.511 31.4788 46.1516 32.3813L46.6213 32.5569C46.8663 31.9361 47.5034 31.4992 48.3977 31.4992C49.4105 31.4992 50.0231 32.0832 50.0231 32.9939V33.2552C50.0231 33.7371 49.3207 33.7861 48.3651 33.9005C46.6907 34.1046 45.9719 34.6355 45.9719 35.681C45.9719 36.8735 46.8786 37.5432 47.9608 37.5432ZM48.0098 37.0817C47.1317 37.0817 46.4702 36.5549 46.4702 35.6973C46.4702 34.9214 47.0419 34.5049 48.4141 34.3415C49.0266 34.2721 49.7617 34.1577 50.0231 33.9413V34.8642C50.0231 36.1384 49.1859 37.0817 48.0098 37.0817ZM54.8773 37.5391C55.9514 37.5391 56.6048 36.849 56.9029 36.0404H56.9642V37.4084H57.4461V29.0448H56.9519V32.5365H56.9029C56.613 31.7279 55.9555 31.0418 54.8814 31.0418C53.3745 31.0418 52.3781 32.3976 52.3781 34.2884C52.3781 36.1874 53.3622 37.5391 54.8773 37.5391ZM54.9223 37.0777C53.6318 37.0777 52.8722 35.8607 52.8722 34.2843C52.8722 32.708 53.6318 31.5073 54.9223 31.5073C56.1964 31.5073 56.956 32.6835 56.956 34.2843C56.956 35.8893 56.1964 37.0777 54.9223 37.0777ZM62.2493 37.5391C63.4867 37.5391 64.2462 36.8163 64.5321 36.1833L64.0788 35.9995C63.846 36.4651 63.2702 37.0777 62.2493 37.0777C60.824 37.0777 59.9705 35.926 59.9501 34.3823H64.7363V34.072C64.7363 32.2098 63.5357 31.0418 62.1308 31.0418C60.5749 31.0418 59.4559 32.4262 59.4559 34.3007C59.4559 36.1711 60.5463 37.5391 62.2493 37.5391ZM59.9583 33.929C60.0563 32.561 60.9424 31.5073 62.1308 31.5073C63.3233 31.5073 64.2381 32.5691 64.2381 33.929H59.9583ZM66.5665 37.4084H67.0647V33.292C67.0647 32.2547 67.6896 31.5155 68.6819 31.5155C69.6661 31.5155 70.1521 32.1893 70.1521 33.1654V37.4084H70.6503V33.2389C70.6503 32.2383 71.222 31.5155 72.2593 31.5155C73.2272 31.5155 73.7377 32.1485 73.7377 33.198V37.4084H74.2359V33.198C74.2359 31.8708 73.5784 31.054 72.3655 31.054C71.4344 31.054 70.7769 31.5278 70.5319 32.2669H70.487C70.2419 31.5237 69.6906 31.054 68.784 31.054C67.955 31.054 67.3424 31.4543 67.1015 32.0832H67.0525V31.1357H66.5665V37.4084ZM76.5939 39.7607C77.2923 39.7607 77.8231 39.3278 78.1335 38.4743L80.7839 31.1398L80.2448 31.1357L78.2519 36.7673H78.2111L76.2182 31.1357H75.6832L77.9824 37.4942L77.6966 38.2783C77.3535 39.2257 76.8104 39.4708 76.0385 39.1767L75.8915 39.6137C76.0875 39.6995 76.3407 39.7607 76.5939 39.7607Z" fill="#001511"/>
</svg>
