<svg width="46" height="40" viewBox="0 0 46 40" fill="none" xmlns="http://www.w3.org/2000/svg">
<path d="M36.917 37.5H8.16699C5.35449 37.5 3.16699 35.3125 3.16699 32.5V8.75C3.16699 8.125 2.54199 7.5 1.91699 7.5C1.21387 7.5 0.666992 8.125 0.666992 8.75V32.5C0.666992 36.7188 3.94824 40 8.16699 40H36.917C37.542 40 38.167 39.4531 38.167 38.75C38.167 38.125 37.542 37.5 36.917 37.5ZM40.667 0H13.167C10.3545 0 8.16699 2.26562 8.16699 5V27.5C8.16699 30.3125 10.3545 32.5 13.167 32.5H40.667C43.4014 32.5 45.667 30.3125 45.667 27.5V5C45.667 2.26562 43.4014 0 40.667 0ZM10.667 5C10.667 3.67188 11.7607 2.5 13.167 2.5H18.167V7.5H10.667V5ZM43.167 27.5C43.167 28.9062 41.9951 30 40.667 30H13.167C11.7607 30 10.667 28.9062 10.667 27.5V10H43.167V27.5ZM43.167 7.5H20.667V2.5H40.667C41.9951 2.5 43.167 3.67188 43.167 5V7.5Z" fill="#282828"/>
</svg>
