<svg width="19" height="24" viewBox="0 0 19 24" fill="none" xmlns="http://www.w3.org/2000/svg">
<path d="M17.584 5.90625L12.5684 0.890625C12.0059 0.328125 11.2559 0 10.459 0H3.47466C1.78716 0 0.474663 1.35938 0.474663 3V21C0.474663 22.6875 1.78716 24 3.47466 24H15.4747C17.1153 24 18.4747 22.6875 18.4747 21V8.01562C18.4747 7.21875 18.1465 6.46875 17.584 5.90625ZM10.9747 1.64062C11.1622 1.6875 11.3497 1.78125 11.5372 1.96875L16.5059 6.9375C16.6934 7.125 16.7872 7.3125 16.834 7.5H11.7247C11.3028 7.5 10.9747 7.17188 10.9747 6.75V1.64062ZM16.9747 21C16.9747 21.8438 16.2715 22.5 15.4747 22.5H3.47466C2.63091 22.5 1.97466 21.8438 1.97466 21V3C1.97466 2.20312 2.63091 1.5 3.47466 1.5H9.47466V6.75C9.47466 8.01562 10.459 9 11.7247 9H16.9747V21ZM4.97466 16.9219C4.88091 17.0156 4.83404 17.1562 4.78716 17.2969L4.22466 20.1094C4.13091 20.6719 4.55279 21.0938 5.11529 21L7.92779 20.4375C8.06841 20.3906 8.20904 20.3438 8.30279 20.25L14.0684 14.5312C14.3965 14.1562 14.6309 13.6875 14.6778 13.2188C14.7247 12.5625 14.5372 12 14.1153 11.5781L13.7403 11.1562C13.3653 10.8281 12.8965 10.5938 12.4278 10.5469C11.7715 10.5 11.209 10.6875 10.7872 11.1094L4.97466 16.9219ZM7.41216 19.0312L5.91216 19.3125L6.19341 17.8125L10.2247 13.7344L11.4903 15L7.41216 19.0312ZM11.8184 12.1875C12.0528 11.9531 12.3809 11.9531 12.6153 12.1875L13.0372 12.6094C13.2715 12.8438 13.2715 13.1719 13.0372 13.4062L12.5215 13.9219L11.3028 12.7031L11.8184 12.1875Z" fill="#282828"/>
</svg>
