<svg width="33" height="37" viewBox="0 0 33 37" fill="none" xmlns="http://www.w3.org/2000/svg">
<path d="M32.0237 26.5899V3.85856C32.0237 2.01164 30.4609 0.448854 28.614 0.448854H5.88262C2.68602 0.448854 0.199773 3.00614 0.199773 6.1317V32.2728C0.199773 34.8301 2.18877 36.8191 4.74605 36.8191H30.8871C31.4554 36.8191 32.0237 36.3218 32.0237 35.6825C32.0237 35.1142 31.4554 34.5459 30.8871 34.5459H29.7506V29.8576C31.0292 29.3603 32.0237 28.0817 32.0237 26.5899ZM2.47291 6.1317C2.47291 4.28478 3.96466 2.72199 5.88262 2.72199H7.01919V27.7265H4.74605C3.89362 27.7265 3.11223 28.0107 2.47291 28.3658V6.1317ZM27.4774 34.5459H4.74605C3.46741 34.5459 2.47291 33.5514 2.47291 32.2728C2.47291 31.0652 3.46741 29.9997 4.74605 29.9997H27.4774V34.5459ZM28.614 27.7265H9.29233V2.72199H28.614C29.1823 2.72199 29.7506 3.29028 29.7506 3.85856V26.5899C29.7506 27.2293 29.1823 27.7265 28.614 27.7265ZM25.2043 9.54141H13.8386C13.1993 9.54141 12.702 10.1097 12.702 10.678C12.702 11.3173 13.1993 11.8145 13.8386 11.8145H25.2043C25.7726 11.8145 26.3409 11.3173 26.3409 10.678C26.3409 10.1097 25.7726 9.54141 25.2043 9.54141ZM25.2043 16.3608H13.8386C13.1993 16.3608 12.702 16.9291 12.702 17.4974C12.702 18.1367 13.1993 18.634 13.8386 18.634H25.2043C25.7726 18.634 26.3409 18.1367 26.3409 17.4974C26.3409 16.9291 25.7726 16.3608 25.2043 16.3608Z" fill="#282828"/>
</svg>
