<svg fill="none" height="40" viewBox="0 0 41 40" width="41" xmlns="http://www.w3.org/2000/svg"><path d="m15.333 12.5c-8.35937 0-14.999992 2.8125-14.999992 6.25v15c0 3.5156 6.640622 6.25 14.999992 6.25 8.2813 0 15-2.7344 15-6.25v-15c0-3.4375-6.7187-6.25-15-6.25zm12.5 21.25c0 1.0156-4.375 3.75-12.5 3.75-8.20312 0-12.49999-2.7344-12.49999-3.75v-3.9844c2.65625 1.6406 7.26559 2.7344 12.49999 2.7344 5.1563 0 9.7656-1.0938 12.5-2.7344zm0-7.5c0 1.0156-4.375 3.75-12.5 3.75-8.20312 0-12.49999-2.7344-12.49999-3.75v-3.9844c2.65625 1.6406 7.26559 2.7344 12.49999 2.7344 5.1563 0 9.7656-1.0938 12.5-2.7344zm-12.5-3.75c-8.20312 0-12.49999-2.7344-12.49999-3.75 0-.9375 4.29687-3.75 12.49999-3.75 8.125 0 12.5 2.8125 12.5 3.75 0 1.0156-4.375 3.75-12.5 3.75zm10-22.5c-7.5 0-15 2.10938-15 6.25v2.5c0 .70312.5469 1.25 1.25 1.25.625 0 1.25-.54688 1.25-1.25v-2.5c0-1.5625 4.9219-3.82812 12.5-3.82812 7.5 0 12.5 2.26562 12.5 3.82812 0 1.09375-3.125 2.96875-8.9062 3.51562-.625.07813-1.0938.62498-1.0938 1.24998 0 1.0938 1.0156 1.25 1.1719 1.25.4687 0 5.625-.4687 8.8281-2.42185v2.65625c0 .7031-1.3281 1.7969-4.1406 2.6562-.5469.1563-.9375.7032-.9375 1.1719 0 .1563.0781.3125.0781.3907.1563.5468.7031.9374 1.25.9374.3906 0 2.3438-.7031 3.75-1.5624v2.6562c0 .7031-1.3281 1.875-4.1406 2.6562-.5469.2344-.9375.7032-.9375 1.25 0 .0782.0781.2344.0781.3126.1563.5468.7031.9374 1.25.9374.0781 0 6.25-1.4843 6.25-5.1562v-12.5c0-4.14062-7.5-6.25-15-6.25z" fill="#282828"/></svg>