<svg fill="none" height="40" viewBox="0 0 51 40" width="51" xmlns="http://www.w3.org/2000/svg"><path d="m45.667 10h-10v2.5h10c1.3281 0 2.5 1.1719 2.5 2.5v15c0 1.4062-1.1719 2.5-2.5 2.5h-5v3.9062l-6.3281-3.5156-.5469-.3906h-8.125c-1.4063 0-2.5-1.0938-2.5-2.5v-2.5h-2.5v2.5c0 2.8125 2.1875 5 5 5h7.5l8.4375 4.8438c.2344.1562.3906.1562.625.1562.4687 0 .9375-.3125.9375-.9375v-4.0625h2.5c2.7344 0 5-2.1875 5-5v-15c0-2.7344-2.2656-5-5-5zm-12.5 10v-15c0-2.73438-2.2656-5-5-5h-22.50001c-2.8125 0-4.999998 2.26562-4.999998 5v15c0 2.8125 2.187498 5 4.999998 5h2.5v4.0625c0 .625.39063.9375.9375.9375.15625 0 .3125 0 .54688-.1562l8.51563-4.8438h10c2.7344 0 5-2.1875 5-5zm-15.7031 2.5-.5469.3906-6.25 3.5156v-3.9062h-5.00001c-1.40625 0-2.5-1.0938-2.5-2.5v-15c0-1.32812 1.09375-2.5 2.5-2.5h22.50001c1.3281 0 2.5 1.17188 2.5 2.5v15c0 1.4062-1.1719 2.5-2.5 2.5z" fill="#282828"/></svg>