<svg width="47" height="40" viewBox="0 0 47 40" fill="none" xmlns="http://www.w3.org/2000/svg">
<path d="M24.1719 20.4688L9.09375 36.6406C7.92188 37.8125 5.89062 37.8125 4.71875 36.6406C3.54688 35.4688 3.54688 33.4375 4.71875 32.2656L20.8906 17.1875C21.4375 16.7188 21.4375 15.9375 20.9688 15.4688C20.5 14.9219 19.7188 14.9219 19.25 15.3906L3 30.4688C0.8125 32.6562 0.8125 36.25 3 38.4375C4.01562 39.4531 5.42188 40 6.90625 40C8.39062 40 9.79688 39.4531 10.8906 38.3594L25.9688 22.1094C26.4375 21.6406 26.4375 20.8594 25.8906 20.3906C25.4219 19.9219 24.6406 19.9219 24.1719 20.4688ZM45.9688 15.3906C45.5 14.9219 44.7188 14.9219 44.1719 15.3906L43.7812 15.7812L40.1875 12.3438C40.3438 10.4688 39.6406 8.59375 38.3125 7.26562L35.0312 3.98438C32.4531 1.40625 29.0938 0 25.5 0C21.9062 0 18.5469 1.40625 16.0469 3.98438C15.5 4.53125 14.9531 4.84375 15.1094 5.625C15.1875 6.01562 15.4219 6.32812 15.7344 6.5625L22.0625 9.6875V9.92188C22.0625 11.6406 22.7656 13.2812 23.9375 14.4531L27.5312 18.0469C28.8594 19.375 30.7344 20.0781 32.6875 19.9219L36.3594 23.2031L35.4219 24.1406C34.9531 24.6094 34.9531 25.4688 35.4219 25.9375C35.6562 26.1719 35.9688 26.25 36.3594 26.25C36.6719 26.25 36.9844 26.1719 37.2188 25.9375L45.9688 17.1875C46.4375 16.7188 46.4375 15.8594 45.9688 15.3906ZM38.1562 21.4844L33.9375 17.6562C33.625 17.3438 33.2344 17.2656 32.8438 17.3438C31.5156 17.5781 30.1875 17.1875 29.25 16.25L25.7344 12.7344C24.9531 11.9531 24.5625 10.9375 24.5625 9.92188V8.90625C24.5625 8.4375 24.25 7.96875 23.8594 7.8125L18.4688 5.07812C20.4219 3.4375 22.9219 2.5 25.5 2.5C28.4688 2.5 31.2031 3.67188 33.2344 5.70312L36.5156 8.98438C37.4531 9.92188 37.8438 11.25 37.6094 12.5781C37.5312 13.0469 37.6875 13.4375 38 13.75L42.0625 17.5781L38.1562 21.4844Z" fill="#282828"/>
</svg>
