<svg width="36" height="40" viewBox="0 0 36 40" fill="none" xmlns="http://www.w3.org/2000/svg">
<path d="M30.833 17.5H28.333V10C28.333 4.53125 23.8018 0 18.333 0C12.7861 0 8.33301 4.53125 8.33301 10V17.5H5.83301C3.02051 17.5 0.833008 19.7656 0.833008 22.5V35C0.833008 37.8125 3.02051 40 5.83301 40H30.833C33.5674 40 35.833 37.8125 35.833 35V22.5C35.833 19.7656 33.5674 17.5 30.833 17.5ZM10.833 10C10.833 5.9375 14.1924 2.5 18.333 2.5C22.3955 2.5 25.833 5.9375 25.833 10V17.5H10.833V10ZM33.333 35C33.333 36.4062 32.1611 37.5 30.833 37.5H5.83301C4.42676 37.5 3.33301 36.4062 3.33301 35V22.5C3.33301 21.1719 4.42676 20 5.83301 20H30.833C32.1611 20 33.333 21.1719 33.333 22.5V35Z" fill="#282828"/>
</svg>
