<svg width="45" height="30" viewBox="0 0 45 30" fill="none" xmlns="http://www.w3.org/2000/svg">
<path d="M43.5938 2.8125C42.8125 2.42188 41.7969 2.42188 41.0156 2.96875L32.9688 8.59375C32.4219 8.98438 32.2656 9.76562 32.6562 10.3906C33.0469 10.9375 33.8281 11.0938 34.4531 10.625L42.5 5.07812V25L34.4531 19.375C33.8281 18.9844 33.0469 19.1406 32.6562 19.6875C32.2656 20.3125 32.4219 21.0938 32.9688 21.4844L41.0156 27.1094C41.4844 27.4219 41.9531 27.5 42.4219 27.5C42.8906 27.5 43.2812 27.4219 43.5938 27.2656C44.4531 26.7969 45 25.9375 45 25V5.07812C45 4.14062 44.4531 3.28125 43.5938 2.8125ZM25 0H5C2.1875 0 0 2.26562 0 5V25C0 27.8125 2.1875 30 5 30H25C27.7344 30 30 27.8125 30 25V5C30 2.26562 27.7344 0 25 0ZM27.5 25C27.5 26.4062 26.3281 27.5 25 27.5H5C3.59375 27.5 2.5 26.4062 2.5 25V5C2.5 3.67188 3.59375 2.5 5 2.5H25C26.3281 2.5 27.5 3.67188 27.5 5V25Z" fill="white"/>
</svg>
