<svg width="43" height="31" viewBox="0 0 43 31" fill="none" xmlns="http://www.w3.org/2000/svg">
<path d="M41.4585 5.391C40.9992 3.55372 39.5446 2.09921 37.7839 1.63989C34.4921 0.72125 21.4781 0.72125 21.4781 0.72125C21.4781 0.72125 8.38743 0.72125 5.09564 1.63989C3.33491 2.09921 1.88039 3.55372 1.42107 5.391C0.502434 8.60624 0.502434 15.496 0.502434 15.496C0.502434 15.496 0.502434 22.3093 1.42107 25.6011C1.88039 27.4384 3.33491 28.8163 5.09564 29.2756C8.38743 30.1177 21.4781 30.1177 21.4781 30.1177C21.4781 30.1177 34.4921 30.1177 37.7839 29.2756C39.5446 28.8163 40.9992 27.4384 41.4585 25.6011C42.3771 22.3093 42.3771 15.496 42.3771 15.496C42.3771 15.496 42.3771 8.60624 41.4585 5.391ZM17.1911 21.6969V9.29523L28.0616 15.496L17.1911 21.6969Z" fill="#282828"/>
</svg>
